<?xml version="1.0" encoding="UTF-8"?>
<!DOCTYPE svg PUBLIC "-//W3C//DTD SVG 1.1//EN" "http://www.w3.org/Graphics/SVG/1.1/DTD/svg11.dtd">
<svg version="1.2" width="40px" height="40px" viewBox="0 0 21000 29700" preserveAspectRatio="xMidYMid" fill-rule="evenodd" stroke-width="28.222" stroke-linejoin="round" xmlns="http://www.w3.org/2000/svg" xmlns:ooo="http://xml.openoffice.org/svg/export" xmlns:xlink="http://www.w3.org/1999/xlink" xmlns:presentation="http://sun.com/xmlns/staroffice/presentation" xmlns:smil="http://www.w3.org/2001/SMIL20/" xmlns:anim="urn:oasis:names:tc:opendocument:xmlns:animation:1.0" xml:space="preserve">
 <defs class="ClipPathGroup">
  <clipPath id="presentation_clip_path" clipPathUnits="userSpaceOnUse">
   <rect x="0" y="0" width="21000" height="29700"/>
  </clipPath>
  <clipPath id="presentation_clip_path_shrink" clipPathUnits="userSpaceOnUse">
   <rect x="21" y="29" width="20958" height="29641"/>
  </clipPath>
 </defs>
 <defs class="TextShapeIndex">
  <g ooo:slide="id1" ooo:id-list="id3 id4 id5 id6 id7 id8 id9 id10 id11 id12 id13 id14 id15"/>
 </defs>
 <defs class="EmbeddedBulletChars">
  <g id="bullet-char-template-57356" transform="scale(0.00048828125,-0.00048828125)">
   <path d="M 580,1141 L 1163,571 580,0 -4,571 580,1141 Z"/>
  </g>
  <g id="bullet-char-template-57354" transform="scale(0.00048828125,-0.00048828125)">
   <path d="M 8,1128 L 1137,1128 1137,0 8,0 8,1128 Z"/>
  </g>
  <g id="bullet-char-template-10146" transform="scale(0.00048828125,-0.00048828125)">
   <path d="M 174,0 L 602,739 174,1481 1456,739 174,0 Z M 1358,739 L 309,1346 659,739 1358,739 Z"/>
  </g>
  <g id="bullet-char-template-10132" transform="scale(0.00048828125,-0.00048828125)">
   <path d="M 2015,739 L 1276,0 717,0 1260,543 174,543 174,936 1260,936 717,1481 1274,1481 2015,739 Z"/>
  </g>
  <g id="bullet-char-template-10007" transform="scale(0.00048828125,-0.00048828125)">
   <path d="M 0,-2 C -7,14 -16,27 -25,37 L 356,567 C 262,823 215,952 215,954 215,979 228,992 255,992 264,992 276,990 289,987 310,991 331,999 354,1012 L 381,999 492,748 772,1049 836,1024 860,1049 C 881,1039 901,1025 922,1006 886,937 835,863 770,784 769,783 710,716 594,584 L 774,223 C 774,196 753,168 711,139 L 727,119 C 717,90 699,76 672,76 641,76 570,178 457,381 L 164,-76 C 142,-110 111,-127 72,-127 30,-127 9,-110 8,-76 1,-67 -2,-52 -2,-32 -2,-23 -1,-13 0,-2 Z"/>
  </g>
  <g id="bullet-char-template-10004" transform="scale(0.00048828125,-0.00048828125)">
   <path d="M 285,-33 C 182,-33 111,30 74,156 52,228 41,333 41,471 41,549 55,616 82,672 116,743 169,778 240,778 293,778 328,747 346,684 L 369,508 C 377,444 397,411 428,410 L 1163,1116 C 1174,1127 1196,1133 1229,1133 1271,1133 1292,1118 1292,1087 L 1292,965 C 1292,929 1282,901 1262,881 L 442,47 C 390,-6 338,-33 285,-33 Z"/>
  </g>
  <g id="bullet-char-template-9679" transform="scale(0.00048828125,-0.00048828125)">
   <path d="M 813,0 C 632,0 489,54 383,161 276,268 223,411 223,592 223,773 276,916 383,1023 489,1130 632,1184 813,1184 992,1184 1136,1130 1245,1023 1353,916 1407,772 1407,592 1407,412 1353,268 1245,161 1136,54 992,0 813,0 Z"/>
  </g>
  <g id="bullet-char-template-8226" transform="scale(0.00048828125,-0.00048828125)">
   <path d="M 346,457 C 273,457 209,483 155,535 101,586 74,649 74,723 74,796 101,859 155,911 209,963 273,989 346,989 419,989 480,963 531,910 582,859 608,796 608,723 608,648 583,586 532,535 482,483 420,457 346,457 Z"/>
  </g>
  <g id="bullet-char-template-8211" transform="scale(0.00048828125,-0.00048828125)">
   <path d="M -4,459 L 1135,459 1135,606 -4,606 -4,459 Z"/>
  </g>
  <g id="bullet-char-template-61548" transform="scale(0.00048828125,-0.00048828125)">
   <path d="M 173,740 C 173,903 231,1043 346,1159 462,1274 601,1332 765,1332 928,1332 1067,1274 1183,1159 1299,1043 1357,903 1357,740 1357,577 1299,437 1183,322 1067,206 928,148 765,148 601,148 462,206 346,322 231,437 173,577 173,740 Z"/>
  </g>
 </defs>
 <g>
  <g id="id2" class="Master_Slide">
   <g id="bg-id2" class="Background"/>
   <g id="bo-id2" class="BackgroundObjects"/>
  </g>
 </g>
 <g class="SlideGroup">
  <g>
   <g id="container-id1">
    <g id="id1" class="Slide" clip-path="url(#presentation_clip_path)">
     <g class="Page">
      <g class="Group">
       <g class="com.sun.star.drawing.PolyPolygonShape">
        <g id="id3">
         <rect class="BoundingBox" stroke="none" fill="none" x="5308" y="12271" width="3504" height="990"/>
         <path fill="rgb(255,255,255)" stroke="none" d="M 5868,12281 L 8800,12281 8791,13250 5319,13250 5319,12436 5868,12281 Z"/>
         <path fill="none" stroke="rgb(27,25,24)" stroke-width="20" stroke-linejoin="miter" d="M 5868,12281 L 8800,12281 8791,13250 5319,13250 5319,12436 5868,12281 Z"/>
        </g>
       </g>
       <g class="com.sun.star.drawing.PolyPolygonShape">
        <g id="id4">
         <rect class="BoundingBox" stroke="none" fill="none" x="5867" y="12281" width="2" height="2"/>
         <path fill="rgb(255,255,255)" stroke="none" d="M 5868,12281 L 5868,12281 Z"/>
        </g>
       </g>
       <g class="com.sun.star.drawing.PolyPolygonShape">
        <g id="id5">
         <rect class="BoundingBox" stroke="none" fill="none" x="5289" y="10540" width="3530" height="1807"/>
         <path fill="rgb(255,255,255)" stroke="none" d="M 5854,12177 L 5311,12332 5300,10550 5841,10550 6379,11215 6913,10550 6919,10550 7451,10550 7463,10550 7463,10900 7108,11316 8149,10550 8789,10550 7828,11312 8789,12058 8789,12184 8291,12184 7463,11564 7463,12184 6919,12184 6919,11933 6914,11215 6540,11853 6240,11853 5848,11215 5854,12177 Z"/>
         <path fill="none" stroke="rgb(27,25,24)" stroke-width="20" stroke-linejoin="miter" d="M 5854,12177 L 5311,12332 5300,10550 5841,10550 6379,11215 6913,10550 6919,10550 7451,10550 7463,10550 7463,10900 7108,11316 8149,10550 8789,10550 7828,11312 8789,12058 8789,12184 8291,12184 7463,11564 7463,12184 6919,12184 6919,11933 6914,11215 6540,11853 6240,11853 5848,11215 5854,12177 Z"/>
        </g>
       </g>
       <g class="com.sun.star.drawing.PolyPolygonShape">
        <g id="id6">
         <rect class="BoundingBox" stroke="none" fill="none" x="5854" y="12176" width="2" height="2"/>
         <path fill="rgb(255,255,255)" stroke="none" d="M 5854,12177 L 5854,12177 Z"/>
        </g>
       </g>
       <g class="com.sun.star.drawing.ClosedBezierShape">
        <g id="id7">
         <rect class="BoundingBox" stroke="none" fill="none" x="5586" y="12383" width="2939" height="766"/>
         <path fill="rgb(0,0,0)" stroke="none" d="M 6071,12404 L 6311,12404 6463,12929 6556,12408 6943,12408 C 7017,12408 7076,12422 7121,12449 L 7128,12408 7846,12408 7837,12461 C 7912,12416 7999,12394 8097,12394 8223,12394 8325,12426 8400,12490 8476,12554 8514,12637 8514,12741 8514,12854 8470,12949 8381,13024 8294,13099 8185,13137 8057,13137 7930,13137 7828,13105 7753,13041 7677,12977 7640,12894 7640,12790 7640,12718 7657,12654 7693,12597 L 7578,12597 7482,13123 7232,13123 7328,12597 7185,12597 C 7181,12619 7172,12640 7159,12659 7141,12687 7114,12709 7080,12726 7110,12734 7139,12752 7166,12781 7194,12809 7207,12845 7207,12889 7207,12960 7177,13017 7115,13060 7053,13102 6976,13123 6884,13123 6675,13123 6465,13123 6255,13123 L 6224,12989 5950,12989 5870,13123 5605,13123 6071,12404 Z"/>
         <path fill="none" stroke="rgb(27,25,24)" stroke-width="20" stroke-linejoin="miter" d="M 6071,12404 L 6311,12404 6463,12929 6556,12408 6943,12408 C 7017,12408 7076,12422 7121,12449 L 7128,12408 7846,12408 7837,12461 C 7912,12416 7999,12394 8097,12394 8223,12394 8325,12426 8400,12490 8476,12554 8514,12637 8514,12741 8514,12854 8470,12949 8381,13024 8294,13099 8185,13137 8057,13137 7930,13137 7828,13105 7753,13041 7677,12977 7640,12894 7640,12790 7640,12718 7657,12654 7693,12597 L 7578,12597 7482,13123 7232,13123 7328,12597 7185,12597 C 7181,12619 7172,12640 7159,12659 7141,12687 7114,12709 7080,12726 7110,12734 7139,12752 7166,12781 7194,12809 7207,12845 7207,12889 7207,12960 7177,13017 7115,13060 7053,13102 6976,13123 6884,13123 L 6255,13123 6224,12989 5950,12989 5870,13123 5605,13123 6071,12404 Z"/>
        </g>
       </g>
       <g class="com.sun.star.drawing.PolyPolygonShape">
        <g id="id8">
         <rect class="BoundingBox" stroke="none" fill="none" x="6071" y="12404" width="2" height="2"/>
         <path fill="rgb(255,255,255)" stroke="none" d="M 6071,12404 L 6071,12404 Z"/>
        </g>
       </g>
       <g class="com.sun.star.drawing.PolyPolygonShape">
        <g id="id9">
         <rect class="BoundingBox" stroke="none" fill="none" x="6028" y="12628" width="172" height="208"/>
         <path fill="rgb(255,255,255)" stroke="none" d="M 6186,12825 L 6147,12655 6046,12825 6186,12825 Z"/>
         <path fill="none" stroke="rgb(27,25,24)" stroke-width="20" stroke-linejoin="miter" d="M 6186,12825 L 6147,12655 6046,12825 6186,12825 Z"/>
        </g>
       </g>
       <g class="com.sun.star.drawing.PolyPolygonShape">
        <g id="id10">
         <rect class="BoundingBox" stroke="none" fill="none" x="6185" y="12824" width="2" height="2"/>
         <path fill="rgb(255,255,255)" stroke="none" d="M 6186,12825 L 6186,12825 Z"/>
        </g>
       </g>
       <g class="com.sun.star.drawing.ClosedBezierShape">
        <g id="id11">
         <rect class="BoundingBox" stroke="none" fill="none" x="6697" y="12817" width="243" height="141"/>
         <path fill="rgb(255,255,255)" stroke="none" d="M 6709,12946 L 6841,12946 C 6867,12946 6888,12941 6904,12929 6921,12917 6929,12902 6929,12882 6929,12865 6922,12853 6908,12843 6894,12833 6875,12828 6852,12828 L 6731,12828 6709,12946 Z"/>
         <path fill="none" stroke="rgb(27,25,24)" stroke-width="20" stroke-linejoin="miter" d="M 6709,12946 L 6841,12946 C 6867,12946 6888,12941 6904,12929 6921,12917 6929,12902 6929,12882 6929,12865 6922,12853 6908,12843 6894,12833 6875,12828 6852,12828 L 6731,12828 6709,12946 Z"/>
        </g>
       </g>
       <g class="com.sun.star.drawing.PolyPolygonShape">
        <g id="id12">
         <rect class="BoundingBox" stroke="none" fill="none" x="6709" y="12946" width="2" height="2"/>
         <path fill="rgb(255,255,255)" stroke="none" d="M 6709,12946 L 6709,12946 Z"/>
        </g>
       </g>
       <g class="com.sun.star.drawing.ClosedBezierShape">
        <g id="id13">
         <rect class="BoundingBox" stroke="none" fill="none" x="6747" y="12568" width="220" height="118"/>
         <path fill="rgb(255,255,255)" stroke="none" d="M 6895,12579 L 6776,12579 6759,12675 6887,12675 C 6908,12675 6926,12670 6937,12660 6950,12651 6956,12637 6956,12620 6956,12608 6950,12597 6939,12590 6927,12582 6913,12579 6895,12579 Z"/>
         <path fill="none" stroke="rgb(27,25,24)" stroke-width="20" stroke-linejoin="miter" d="M 6895,12579 L 6776,12579 6759,12675 6887,12675 C 6908,12675 6926,12670 6937,12660 6950,12651 6956,12637 6956,12620 6956,12608 6950,12597 6939,12590 6927,12582 6913,12579 6895,12579 Z"/>
        </g>
       </g>
       <g class="com.sun.star.drawing.PolyPolygonShape">
        <g id="id14">
         <rect class="BoundingBox" stroke="none" fill="none" x="6894" y="12578" width="2" height="2"/>
         <path fill="rgb(255,255,255)" stroke="none" d="M 6895,12579 L 6895,12579 Z"/>
        </g>
       </g>
       <g class="com.sun.star.drawing.ClosedBezierShape">
        <g id="id15">
         <rect class="BoundingBox" stroke="none" fill="none" x="7885" y="12584" width="384" height="365"/>
         <path fill="rgb(255,255,255)" stroke="none" d="M 8064,12937 C 8123,12937 8170,12919 8205,12882 8240,12845 8258,12798 8258,12741 8258,12701 8243,12666 8212,12638 8182,12609 8141,12594 8090,12594 8032,12594 7985,12613 7949,12650 7914,12686 7895,12733 7895,12790 7895,12829 7911,12864 7941,12894 7971,12923 8012,12937 8064,12937 Z"/>
         <path fill="none" stroke="rgb(27,25,24)" stroke-width="20" stroke-linejoin="miter" d="M 8064,12937 C 8123,12937 8170,12919 8205,12882 8240,12845 8258,12798 8258,12741 8258,12701 8243,12666 8212,12638 8182,12609 8141,12594 8090,12594 8032,12594 7985,12613 7949,12650 7914,12686 7895,12733 7895,12790 7895,12829 7911,12864 7941,12894 7971,12923 8012,12937 8064,12937 Z"/>
        </g>
       </g>
      </g>
     </g>
    </g>
   </g>
  </g>
 </g>
</svg>
