<svg width="54" height="30" viewBox="0 0 54 30" fill="none" xmlns="http://www.w3.org/2000/svg">
<path d="M13.262 29.494L0.76 0.499998H2.166L13.452 26.606L18.734 14.256L12.844 0.499998H14.212L19.494 13.002L24.928 0.499998H25.992L20.064 14.218L25.46 26.72L36.974 0.499998H38L25.346 29.494L19.304 15.586L13.262 29.494ZM41.7406 0.499998H43.3746C45.832 0.499998 47.9853 1.412 49.8346 3.236C51.7093 5.03466 52.6466 7.16266 52.6466 9.62C52.6466 12.052 51.6966 14.1673 49.7966 15.966C47.8966 17.7647 45.8573 18.664 43.6786 18.664H43.4126L53.2166 29H51.5826L42.9566 19.956V29H41.7406V0.499998ZM42.9566 17.562H43.6406C45.6926 17.562 47.504 16.7767 49.0746 15.206C50.6453 13.6353 51.4306 11.7733 51.4306 9.62C51.4306 7.46667 50.62 5.592 48.9986 3.996C47.3773 2.4 45.528 1.602 43.4506 1.602H42.9566V17.562Z" fill="#F8F7F9"/>
</svg>
